<?xml version="1.0" encoding="UTF-8"?>
<svg version="1.1" xmlns="http://www.w3.org/2000/svg" width="1024" height="1024">
<path d="M0 0 C337.92 0 675.84 0 1024 0 C1024 337.92 1024 675.84 1024 1024 C686.08 1024 348.16 1024 0 1024 C0 686.08 0 348.16 0 0 Z " fill="#FDFDFD" transform="translate(0,0)"/>
<path d="M0 0 C1.54849484 -0.00446733 3.09698742 -0.00978619 4.64547676 -0.01586872 C8.84774293 -0.02987956 13.04993458 -0.03171528 17.25222075 -0.03127182 C21.80526761 -0.03293513 26.35828507 -0.04602924 30.91131592 -0.0574646 C40.84135572 -0.08019519 50.77137399 -0.08822189 60.70143628 -0.09329104 C66.91482116 -0.09656125 73.12819993 -0.10309151 79.34158134 -0.11029243 C96.58386439 -0.12984077 113.82614179 -0.14625598 131.06843662 -0.14916897 C132.16912391 -0.14935654 133.26981119 -0.14954411 134.40385264 -0.14973736 C136.63465846 -0.15010358 138.86546427 -0.15046728 141.09627009 -0.15082847 C142.20346321 -0.15101128 143.31065633 -0.1511941 144.45140076 -0.15138245 C146.11424402 -0.15165327 146.11424402 -0.15165327 147.81068008 -0.15192956 C165.76391666 -0.15546952 183.71703317 -0.18248872 201.67022813 -0.21988034 C220.15337143 -0.2580642 238.63645529 -0.27732717 257.11963886 -0.27762848 C267.47687919 -0.27821069 277.83397613 -0.28654963 288.19117928 -0.31562614 C297.01094001 -0.34027504 305.83050501 -0.34733235 314.65029097 -0.33237862 C319.13949135 -0.32526524 323.6283063 -0.32582275 328.11746216 -0.34878922 C347.2437869 -0.44083987 365.24778361 0.15763085 383.84275818 5.27415466 C385.00250284 5.58138747 385.00250284 5.58138747 386.18567669 5.89482701 C406.79184338 11.3712756 424.56030901 21.67319543 440.84275818 35.27415466 C441.52982849 35.82587341 442.2168988 36.37759216 442.92478943 36.94602966 C448.71222204 41.74035253 453.24758939 47.35330001 457.84275818 53.27415466 C458.47826599 54.04759216 459.1137738 54.82102966 459.76853943 55.61790466 C482.00476825 83.97715301 488.01879832 118.78585229 487.97647095 153.88270569 C487.97834449 155.29946654 487.98064733 156.71622688 487.98333627 158.13298643 C487.98939358 161.98489066 487.98932793 165.83677299 487.98814189 169.68868089 C487.98793634 173.85927548 487.99347133 178.02986333 487.99819946 182.20045471 C488.00647316 190.35607962 488.00925281 198.51169729 488.00981184 206.66732605 C488.01028856 213.30297706 488.01235106 219.93862571 488.01551247 226.57427597 C488.02431006 245.42635961 488.02893324 264.27843757 488.02818199 283.13052328 C488.02812206 284.65205783 488.02812206 284.65205783 488.02806091 286.20433044 C488.02799959 287.72774282 488.02799959 287.72774282 488.02793703 289.28193121 C488.02753081 305.73131606 488.03709671 322.18067799 488.05119928 338.63005622 C488.0655967 355.5581834 488.07246762 372.48629943 488.0716055 389.41443288 C488.0712747 398.90298836 488.07397054 408.39151981 488.08478355 417.88006973 C488.09393298 425.95996383 488.0960276 434.039823 488.08927413 442.11972006 C488.0860312 446.23361082 488.08587058 450.34743476 488.09462738 454.46131897 C488.18981762 502.27764038 481.47214174 546.56743146 446.40525818 582.14915466 C427.23040978 600.87497 402.99778629 613.53398369 376.84275818 619.27415466 C376.07700281 619.44345847 375.31124744 619.61276229 374.52228737 619.78719652 C356.32851143 623.65226127 338.43170068 623.83781431 319.94079471 623.7530762 C315.58503723 623.73762831 311.22930842 623.74576454 306.87353516 623.75076294 C298.37698593 623.75693862 289.88060188 623.74212302 281.38408428 623.72003732 C271.46721301 623.69516323 261.55037052 623.69242513 251.63347268 623.69063356 C233.93220275 623.68677074 216.23100646 623.66439638 198.5297699 623.63084412 C181.39076936 623.59838458 164.25180766 623.57715488 147.11277771 623.56932068 C145.52730831 623.56859244 145.52730831 623.56859244 143.90980923 623.56784949 C139.65990745 623.56592033 135.41000566 623.5640082 131.16010386 623.56213339 C113.77728953 623.55413133 96.39448279 623.53687743 79.01167679 623.51849723 C75.06353405 623.51436203 71.11539124 623.5106387 67.16724777 623.50727487 C56.79665649 623.49832906 46.4260836 623.48646095 36.05550843 623.46570883 C31.77194434 623.4571659 27.48839264 623.45004988 23.20482063 623.44719315 C19.27339233 623.44449452 15.34199983 623.43711804 11.410586 623.42620268 C9.99918694 623.42303969 8.58778309 623.42145993 7.17638052 623.42175297 C-6.76898043 623.42267647 -20.5602629 623.05214644 -34.21974182 620.02415466 C-35.24994446 619.80018005 -36.28014709 619.57620544 -37.34156799 619.34544373 C-61.77314696 613.88000618 -82.98329971 603.37900043 -102.15724182 587.27415466 C-102.9177887 586.64895935 -103.67833557 586.02376404 -104.46192932 585.37962341 C-131.87548797 562.09232706 -145.88057583 525.55100499 -148.95047224 490.45551312 C-149.33596569 484.52430787 -149.30564819 478.59043215 -149.30441284 472.6491394 C-149.30771935 471.19387069 -149.31144655 469.73860289 -149.31555432 468.28333622 C-149.32549322 464.3108249 -149.32927791 460.33832868 -149.33194363 456.3658067 C-149.33587104 452.070296 -149.34544758 447.77479699 -149.35415649 443.47929382 C-149.37385342 433.1180725 -149.3839789 422.7568503 -149.39288428 412.39561495 C-149.39727867 407.50317405 -149.4026425 402.61073421 -149.40787315 397.71829414 C-149.42487934 381.43188801 -149.43937005 365.14548251 -149.44662189 348.85906887 C-149.44853145 344.63943926 -149.45045183 340.41980965 -149.45240784 336.20018005 C-149.45313345 334.62723857 -149.45313345 334.62723857 -149.45387372 333.02252049 C-149.46216125 316.0628854 -149.48747931 299.10332114 -149.51998851 282.14371692 C-149.55317089 264.6890702 -149.57108074 247.23445933 -149.57426614 229.77978092 C-149.57642102 219.99696617 -149.58501852 210.21425466 -149.61072731 200.43147087 C-149.63258774 192.09436941 -149.64041024 183.7573963 -149.63076053 175.42026942 C-149.62625964 171.17798835 -149.62785136 166.9359712 -149.64752197 162.69372749 C-149.8283077 121.38503633 -143.99055221 81.57453956 -116.15724182 49.27415466 C-115.57200745 48.56774841 -114.98677307 47.86134216 -114.38380432 47.13352966 C-110.34494881 42.34538421 -106.03057532 38.20450567 -101.15724182 34.27415466 C-100.62518127 33.84086853 -100.09312073 33.4075824 -99.54493713 32.96116638 C-84.36566334 20.71566694 -67.86224559 11.83787744 -49.15724182 6.27415466 C-48.49127991 6.0759613 -47.82531799 5.87776794 -47.13917542 5.67356873 C-31.64587976 1.19075617 -16.06642221 -0.02985646 0 0 Z " fill="#0C1B17" transform="translate(343.15724182128906,197.72584533691406)"/>
<path d="M0 0 C19.8 0 39.6 0 60 0 C60 80.85 60 161.7 60 245 C41.85 245 23.7 245 5 245 C-2.81789495 234.94842077 -10.59209024 224.92885263 -18.203125 214.73046875 C-20.77065224 211.29565264 -23.376866 207.89245379 -26 204.5 C-29.58306674 199.86372014 -33.11679082 195.19316282 -36.625 190.5 C-42.06193587 183.22703082 -47.56173642 176.00320172 -53.07226562 168.78588867 C-57.11840901 163.48232991 -61.13638484 158.1594149 -65.125 152.8125 C-69.99816408 146.28390686 -74.98563588 139.84912769 -80.00048828 133.42895508 C-83.20957417 129.3163963 -86.3847482 125.18449407 -89.5 121 C-95.56052803 112.91929596 -101.79865951 104.97315206 -108 97 C-108.33 145.84 -108.66 194.68 -109 245 C-129.46 245 -149.92 245 -171 245 C-171.68184976 221.68786871 -171.68184976 221.68786871 -171.83007812 211.45507812 C-171.93024781 204.57355439 -172.04626086 197.69600265 -172.2824707 190.81762695 C-173.31904473 159.78776717 -170.11317325 135.96566127 -156.0553894 108.12692261 C-153.35403168 102.76851506 -151.06787319 97.25466151 -148.796875 91.703125 C-148.10369468 90.07145342 -147.40725319 88.44116213 -146.70703125 86.8125 C-146.38428223 86.0596875 -146.0615332 85.306875 -145.72900391 84.53125 C-145.40593262 83.7784375 -145.08286133 83.025625 -144.75 82.25 C-140.68950215 72.78753893 -136.67574234 63.33605065 -133.03271484 53.70361328 C-131.75634793 50.36212695 -130.37052896 47.08970552 -128.9375 43.8125 C-127.23930015 39.89324488 -125.56725884 35.97342385 -124 32 C-120.08807502 22.13091125 -115.90479814 12.41894864 -111 3 C-107.65533555 2.27025503 -106.19256392 1.98200383 -103 3 C-99.93295952 6.11093373 -97.58643014 9.65458944 -95.17529297 13.27685547 C-93.29911128 16.02760128 -91.23838877 18.6281438 -89.1875 21.25 C-85.53923556 25.96741253 -81.94545211 30.72349936 -78.375 35.5 C-73.61961583 41.86127016 -68.81914375 48.18691029 -64 54.5 C-58.82936315 61.27422726 -53.68666483 68.06748793 -48.5847168 74.89355469 C-44.36025792 80.5375628 -40.08902321 86.14537628 -35.8125 91.75 C-30.1730882 99.14096229 -24.5624399 106.55088457 -19 114 C-17.50042171 116.00031621 -16.00041175 118.00030887 -14.5 120 C-10 126 -5.5 132 -1 138 C-0.505 69.69 -0.505 69.69 0 0 Z " fill="#3FF156" transform="translate(677,378)"/>
<path d="M0 0 C23.76 0 47.52 0 72 0 C77.61706393 12.35754065 77.61706393 12.35754065 79.25390625 16.70703125 C79.81368164 18.18127563 79.81368164 18.18127563 80.38476562 19.68530273 C80.77341797 20.71727783 81.16207031 21.74925293 81.5625 22.8125 C85.02803895 31.92800151 88.58520453 41.0011953 92.23571777 50.04379272 C96.24449562 59.97657869 100.13820337 69.93724698 103.8125 80 C107.826794 90.98791698 112.06239347 101.87639882 116.375 112.75 C116.69314667 113.55216949 117.01129333 114.35433899 117.33908081 115.18081665 C117.65636139 115.98071014 117.97364197 116.78060364 118.30053711 117.60473633 C118.93998387 119.2169428 119.57938826 120.82916606 120.21875 122.44140625 C120.53417252 123.23670242 120.84959503 124.0319986 121.17457581 124.85139465 C124.44811961 133.11458716 127.66879925 141.39798399 130.875 149.6875 C131.13206726 150.35124634 131.38913452 151.01499268 131.6539917 151.69885254 C135.81636304 162.44908912 135.81636304 162.44908912 137 166 C143.43809979 151.40697381 149.38798021 136.63399133 155.2890625 121.81835938 C155.99993699 120.03382907 156.71087586 118.2493244 157.421875 116.46484375 C157.78510864 115.55318451 158.14834229 114.64152527 158.52258301 113.70223999 C163.14243185 102.11899034 167.82385669 90.56060664 172.5 79 C179.68749753 61.2272106 186.84361195 43.44241029 193.93945312 25.6328125 C203.60012171 1.39987829 203.60012171 1.39987829 205 0 C206.9943173 -0.09405142 208.99199543 -0.11743249 210.98852539 -0.11352539 C212.26977798 -0.11344986 213.55103058 -0.11337433 214.87110901 -0.11329651 C216.27995848 -0.10818909 217.68880756 -0.10297309 219.09765625 -0.09765625 C220.53112234 -0.09579202 221.96458907 -0.09436814 223.39805603 -0.09336853 C227.17759957 -0.08954372 230.9571049 -0.07971377 234.7366333 -0.06866455 C238.59069298 -0.05844963 242.44475882 -0.05387074 246.29882812 -0.04882812 C253.86590287 -0.03809146 261.43294609 -0.02101549 269 0 C268.53252029 1.76049418 268.0616506 3.52008843 267.58935547 5.27929688 C267.19657913 6.7492511 267.19657913 6.7492511 266.79586792 8.24890137 C265.85558711 11.49919601 264.60528368 14.4594173 263.125 17.5 C262.60292969 18.59183594 262.08085938 19.68367188 261.54296875 20.80859375 C261.03378906 21.86175781 260.52460937 22.91492188 260 24 C257.43395458 29.51813308 254.95181169 35.06172583 252.62109375 40.68359375 C252.18385986 41.73667725 251.74662598 42.78976074 251.29614258 43.87475586 C250.654552 45.42175171 250.654552 45.42175171 250 47 C249.28422681 48.71890522 248.56809887 50.43766277 247.8515625 52.15625 C247.49425049 53.01379883 247.13693848 53.87134766 246.76879883 54.75488281 C223.18359377 111.35937495 223.18359377 111.35937495 222.29312134 113.49650574 C221.70016191 114.91961041 221.10720538 116.34271629 220.51425171 117.76582336 C218.99996635 121.40014434 217.48562771 125.0344431 215.97119141 128.66870117 C212.8046548 136.26774295 209.63878828 143.86706284 206.47424316 151.4669342 C201.4115899 163.62516462 196.34607566 175.78219927 191.27697754 187.93774414 C190.4229607 189.98571914 189.56903877 192.03373371 188.71520996 194.08178711 C186.22350942 200.05835863 183.72992662 206.03413817 181.23355103 212.00875854 C180.46372919 213.85187327 179.69448595 215.69522978 178.9258728 217.53884888 C177.85978855 220.0956044 176.79149031 222.65142426 175.72265625 225.20703125 C175.4182663 225.93835266 175.11387634 226.66967407 174.80026245 227.42315674 C172.31881349 233.34573385 169.66123615 239.14528046 167 245 C144.56 245 122.12 245 99 245 C93.37538537 232.62584782 93.37538537 232.62584782 90.96875 226.66015625 C90.70025742 225.99655594 90.43176483 225.33295563 90.15513611 224.64924622 C89.26782249 222.45457256 88.38389528 220.25855236 87.5 218.0625 C86.85576017 216.46687481 86.21130327 214.87133726 85.56665039 213.27587891 C84.15140141 209.77215731 82.73760456 206.26785407 81.32470703 202.76318359 C78.83406126 196.58647269 76.33702009 190.41235416 73.83984375 184.23828125 C64.13993537 160.25108726 54.47523522 136.25037419 44.88549805 112.21893311 C27.58280666 68.6160961 27.58280666 68.6160961 9.61889648 25.28393555 C6.10677551 16.98229891 2.85088685 8.55266054 0 0 Z " fill="#47F25C" transform="translate(278,378)"/>
<path d="M0 0 C0.33 0 0.66 0 1 0 C1 76.23 1 152.46 1 231 C-17.15 231 -35.3 231 -54 231 C-71.6124031 207.88372093 -71.6124031 207.88372093 -76.8984375 200.78125 C-78.48722859 198.67861197 -80.09455017 196.59990218 -81.7265625 194.53125 C-82.18820801 193.94279297 -82.64985352 193.35433594 -83.12548828 192.74804688 C-84.01666351 191.61468726 -84.91317032 190.48549181 -85.81591797 189.36132812 C-87.94043675 186.65382569 -89.53442084 184.45858803 -90 181 C-88.33333333 182.66666667 -86.66666667 184.33333333 -85 186 C-84.071875 186.86625 -83.14375 187.7325 -82.1875 188.625 C-80 191 -80 191 -80 194 C-79.278125 194.20625 -78.55625 194.4125 -77.8125 194.625 C-74.28131629 196.35135648 -71.94849602 198.62944372 -70 202 C-69.76152344 203.03125 -69.52304687 204.0625 -69.27734375 205.125 C-67.89257281 210.31258081 -64.52471448 214.16159642 -61.25 218.3125 C-60.6415625 219.12267578 -60.033125 219.93285156 -59.40625 220.76757812 C-58.80296875 221.54166016 -58.1996875 222.31574219 -57.578125 223.11328125 C-57.03575195 223.81235596 -56.49337891 224.51143066 -55.93457031 225.23168945 C-50.74820118 229.97233454 -43.97905011 229.27919814 -37.38671875 229.23046875 C-36.37656204 229.23001053 -35.36640533 229.22955231 -34.32563782 229.2290802 C-32.2000714 229.22606883 -30.07450696 229.21821606 -27.94897461 229.20581055 C-24.68139925 229.18746575 -21.41410605 229.18530161 -18.14648438 229.18554688 C-16.0807267 229.18063467 -14.01497095 229.17480765 -11.94921875 229.16796875 C-10.96700851 229.16685593 -9.98479828 229.1657431 -8.9728241 229.16459656 C-8.07131119 229.15821671 -7.16979828 229.15183685 -6.2409668 229.14526367 C-5.44409958 229.14145187 -4.64723236 229.13764008 -3.82621765 229.13371277 C-1.98072494 229.19858627 -1.98072494 229.19858627 -1 228 C-0.90468837 226.6465941 -0.8781128 225.28826016 -0.87974548 223.9315033 C-0.87837082 223.05505661 -0.87699615 222.17860992 -0.87557983 221.27560425 C-0.87917511 220.30672272 -0.88277039 219.33784119 -0.88647461 218.33959961 C-0.88632858 217.32508224 -0.88618256 216.31056488 -0.8860321 215.26530457 C-0.88673171 211.89429627 -0.89452632 208.52334246 -0.90234375 205.15234375 C-0.90420776 202.82206757 -0.90563174 200.491791 -0.90663147 198.16151428 C-0.91045798 192.01462735 -0.9202894 185.86776387 -0.93133545 179.72088623 C-0.94154671 173.45390134 -0.94612848 167.18691268 -0.95117188 160.91992188 C-0.96191155 148.61327092 -0.97898956 136.30663741 -1 124 C-1.33 124 -1.66 124 -2 124 C-2 121.69 -2 119.38 -2 117 C-1.67 117 -1.34 117 -1 117 C-1 111.72 -1 106.44 -1 101 C-1.33 101 -1.66 101 -2 101 C-2 99.35 -2 97.7 -2 96 C-1.67 96 -1.34 96 -1 96 C-1 95.31292969 -1 94.62585938 -1 93.91796875 C-1 78.27864583 -1 62.63932292 -1 47 C-1.33 47 -1.66 47 -2 47 C-2 45.02 -2 43.04 -2 41 C-1.67 41 -1.34 41 -1 41 C-0.67 27.47 -0.34 13.94 0 0 Z " fill="#59FB72" transform="translate(735,391)"/>
<path d="M0 0 C0.33 0.66 0.66 1.32 1 2 C1.66 2 2.32 2 3 2 C3.22606463 3.51829891 3.42985539 5.03991818 3.625 6.5625 C3.74101563 7.40941406 3.85703125 8.25632812 3.9765625 9.12890625 C4 12 4 12 3.0146637 14.76954651 C1.22232652 20.85050437 1.74818538 27.28005391 1.78881836 33.55834961 C1.79102298 35.04172666 1.79232577 36.52510528 1.7928009 38.00848389 C1.79573219 41.20585921 1.80497828 44.40313195 1.81910515 47.60047722 C1.84164711 52.73076577 1.84951399 57.86101758 1.85560608 62.99134827 C1.8683016 72.12215416 1.89330272 81.25289589 1.92095947 90.38366699 C1.96702354 105.63283574 2.00005714 120.88203655 2.02324343 136.13125658 C2.02597609 137.89474529 2.0288723 139.65823376 2.03193235 141.42172194 C2.09084831 175.62315431 1.7041328 209.80598942 1 244 C0.67 244 0.34 244 0 244 C0 163.48 0 82.96 0 0 Z " fill="#076313" transform="translate(737,378)"/>
<path d="M0 0 C1.2684375 0.2475 1.2684375 0.2475 2.5625 0.5 C4.23598795 0.84327958 5.90281942 1.22019986 7.5625 1.625 C10.12449206 2.01915263 11.53355831 1.63650108 14 1 C16.0625 1.4375 16.0625 1.4375 18 2 C18.99 2 19.98 2 21 2 C21 2.66 21 3.32 21 4 C21.66 4 22.32 4 23 4 C23.34611328 5.07314453 23.34611328 5.07314453 23.69921875 6.16796875 C26.54796809 14.87185506 29.63737444 23.47977738 33.2421875 31.90234375 C33.61601562 32.78019531 33.98984375 33.65804687 34.375 34.5625 C34.71273437 35.32691406 35.05046875 36.09132813 35.3984375 36.87890625 C36.09824461 39.34640795 35.69698742 40.57890245 35 43 C33.81087232 40.04231855 32.62404637 37.08371784 31.4375 34.125 C31.11458984 33.32191406 30.79167969 32.51882813 30.45898438 31.69140625 C26.9035429 22.81973324 23.46484946 13.9096129 20 5 C-3.76 4.67 -27.52 4.34 -52 4 C-52.33 4.66 -52.66 5.32 -53 6 C-53 5.01 -53 4.02 -53 3 C-48.3886724 2.08630041 -44.07041999 1.92472273 -39.375 2 C-35.33428165 2.06452245 -31.89169419 2.01782771 -28 1 C-26.741875 1.185625 -25.48375 1.37125 -24.1875 1.5625 C-20.01934217 2.17228605 -17.01780733 1.31491876 -13 0 C-8.29745101 -0.90750945 -4.67509812 -1.01632568 0 0 Z " fill="#0E6F1E" transform="translate(330,374)"/>
<path d="M0 0 C0.639375 0.350625 1.27875 0.70125 1.9375 1.0625 C5.33507016 2.1025725 7.73077426 1.72788389 11.19921875 1.2265625 C15.97157692 0.840514 20.68740096 1.35545657 25.44921875 1.74609375 C28.96206893 2.04942141 28.96206893 2.04942141 32.33984375 1.9453125 C35 2 35 2 36.875 3.4375 C38 5 38 5 38 6 C16.55 6.33 -4.9 6.66 -27 7 C-27 6.01 -27 5.02 -27 4 C-26.08476562 3.93941406 -25.16953125 3.87882812 -24.2265625 3.81640625 C-22.44378906 3.69072266 -22.44378906 3.69072266 -20.625 3.5625 C-19.44164062 3.48128906 -18.25828125 3.40007812 -17.0390625 3.31640625 C-14.08481099 3.18915064 -14.08481099 3.18915064 -12 2 C-9.43154781 1.96962979 -6.879238 2.06688815 -4.3125 2.16015625 C-1.80290553 2.24061362 -1.80290553 2.24061362 0 0 Z " fill="#118321" transform="translate(509,372)"/>
<path d="M0 0 C19.8 0 39.6 0 60 0 C60 1.65 60 3.3 60 5 C59.505 3.515 59.505 3.515 59 2 C40.52 2.33 22.04 2.66 3 3 C2.67 17.85 2.34 32.7 2 48 C1.67 48 1.34 48 1 48 C0.82744635 43.56270941 0.66313255 39.12514614 0.5 34.6875 C0.45230469 33.46353516 0.40460937 32.23957031 0.35546875 30.97851562 C-0.01888257 20.63037545 0 10.37614716 0 0 Z " fill="#96F29C" transform="translate(677,378)"/>
<path d="M0 0 C3.10444787 3.59215569 4.6290124 7.69091357 6.3125 12.0625 C7.00997129 13.83741466 7.70792965 15.61213797 8.40625 17.38671875 C9.00373047 18.91304932 9.00373047 18.91304932 9.61328125 20.47021484 C12.17476059 26.99026208 14.76985067 33.4969098 17.36679077 40.00289917 C18.30148689 42.34737607 19.23254329 44.69327544 20.16333008 47.03930664 C20.75065914 48.51324523 21.33813662 49.98712469 21.92578125 51.4609375 C22.19116699 52.13216141 22.45655273 52.80338531 22.72998047 53.49494934 C24.30624093 57.43619303 26.08224596 61.21525302 28 65 C28.82430012 67.19636097 29.61480421 69.40563645 30.375 71.625 C32.91157045 78.85611875 35.82581306 85.87984803 38.81982422 92.93066406 C39.68113819 94.97074633 40.52900535 97.01602442 41.375 99.0625 C41.65013428 99.70630615 41.92526855 100.3501123 42.20874023 101.01342773 C44.113744 105.65876799 44.113744 105.65876799 43 109 C34.87958515 90.59372634 27.50599254 71.89121315 20.07080078 53.20117188 C17.10918142 45.75877044 14.13194435 38.32262126 11.15512085 30.8862915 C10.27540521 28.68847062 9.39603883 26.49051042 8.5168457 24.29248047 C8.24383133 23.61013336 7.97081696 22.92778625 7.68952942 22.22476196 C7.16656461 20.91673566 6.64423147 19.60845658 6.12260437 18.29989624 C5.00531468 15.49894305 3.8773692 12.703564 2.72460938 9.91699219 C2.35658203 9.02399414 1.98855469 8.13099609 1.609375 7.2109375 C1.29452148 6.4586084 0.97966797 5.7062793 0.65527344 4.93115234 C0 3 0 3 0 0 Z " fill="#65F076" transform="translate(318,475)"/>
<path d="M0 0 C0.33 0 0.66 0 1 0 C1 46.86 1 93.72 1 142 C0.67 142 0.34 142 0 142 C-0.33 136.06 -0.66 130.12 -1 124 C-1.33 124 -1.66 124 -2 124 C-2 121.69 -2 119.38 -2 117 C-1.67 117 -1.34 117 -1 117 C-1 111.72 -1 106.44 -1 101 C-1.33 101 -1.66 101 -2 101 C-2 99.35 -2 97.7 -2 96 C-1.67 96 -1.34 96 -1 96 C-1 95.31292969 -1 94.62585938 -1 93.91796875 C-1 78.27864583 -1 62.63932292 -1 47 C-1.33 47 -1.66 47 -2 47 C-2 45.02 -2 43.04 -2 41 C-1.67 41 -1.34 41 -1 41 C-0.67 27.47 -0.34 13.94 0 0 Z " fill="#5EFC72" transform="translate(735,391)"/>
<path d="M0 0 C0.66 0 1.32 0 2 0 C2.66 1.65 3.32 3.3 4 5 C4.66 5 5.32 5 6 5 C7.26953125 6.58984375 7.26953125 6.58984375 8.8125 8.9375 C12.30952789 14.07583908 15.98887271 19.0518077 19.75 24 C20.3169458 24.754021 20.8838916 25.50804199 21.46801758 26.28491211 C22.2804895 27.35044312 22.2804895 27.35044312 23.109375 28.4375 C23.59374023 29.07558594 24.07810547 29.71367188 24.57714844 30.37109375 C26.09539686 32.25262442 26.09539686 32.25262442 29 34 C30.03432904 35.98246398 31.03238392 37.98413316 32 40 C32.96534522 41.35863401 33.95277149 42.70343137 35 44 C35.66 43.34 36.32 42.68 37 42 C37.20520264 42.81573486 37.20520264 42.81573486 37.41455078 43.64794922 C39.31886047 50.27403944 42.52233276 54.84931393 46.875 60.125 C48.10278452 61.64745281 49.32936627 63.17087645 50.5546875 64.6953125 C51.14088867 65.4162207 51.72708984 66.13712891 52.33105469 66.87988281 C53.9132475 68.88979539 55.37479973 70.94527819 56.8203125 73.0546875 C57.53960938 74.02664063 58.25890625 74.99859375 59 76 C59.66 76 60.32 76 61 76 C61.66 78.31 62.32 80.62 63 83 C58.73037901 78.94505269 55.14949245 74.53763505 51.5625 69.875 C50.95559326 69.09092773 50.34868652 68.30685547 49.72338867 67.49902344 C44.7269044 61.01382758 39.87089578 54.42990568 35.03686523 47.82324219 C31.23410966 42.6379084 27.34129268 37.54322114 23.34106445 32.50927734 C18.98777924 27.02004058 14.7421063 21.45042111 10.5 15.875 C9.80471191 14.96121582 9.10942383 14.04743164 8.39306641 13.10595703 C6.59359127 10.73864555 4.79468958 8.37094146 3 6 C2.43474609 5.28859863 1.86949219 4.57719727 1.28710938 3.84423828 C0 2 0 2 0 0 Z " fill="#4FEF67" transform="translate(580,487)"/>
<path d="M0 0 C1.32 0.99 2.64 1.98 4 3 C3.67 3.66 3.34 4.32 3 5 C2.67 5 2.34 5 2 5 C2.00092179 5.65100457 2.00184359 6.30200914 2.00279331 6.97274113 C2.02495983 22.87560923 2.04146553 38.7784719 2.05181217 54.68135166 C2.05694981 62.37212749 2.06394377 70.06289294 2.07543945 77.75366211 C2.08546417 84.46358194 2.09187181 91.17349425 2.09408849 97.88342136 C2.09538248 101.43021542 2.09838398 104.97698799 2.10573006 108.5237751 C2.16236301 136.9201068 2.16236301 136.9201068 1 149 C0.67 149 0.34 149 0 149 C0 99.83 0 50.66 0 0 Z " fill="#042E0A" transform="translate(568,474)"/>
<path d="M0 0 C1.70209877 0.00333092 1.70209877 0.00333092 3.43858337 0.00672913 C4.71983597 0.00680466 6.00108856 0.00688019 7.32116699 0.00695801 C8.73001646 0.01206542 10.13886554 0.01728143 11.54771423 0.02259827 C12.98118033 0.02446249 14.41464706 0.02588637 15.84811401 0.02688599 C19.62765755 0.03071079 23.40716288 0.04054075 27.18669128 0.05158997 C31.04075097 0.06180489 34.8948168 0.06638378 38.74888611 0.07142639 C46.31596085 0.08216306 53.88300407 0.09923903 61.45005798 0.12025452 C60.79005798 1.77025452 60.13005798 3.42025452 59.45005798 5.12025452 C59.07189438 4.6322789 58.69373077 4.14430328 58.30410767 3.64154053 C55.74098807 1.53844802 54.07569235 1.75826557 50.78526306 1.77967834 C49.62428604 1.77990494 48.46330902 1.78013153 47.26715088 1.78036499 C46.01395554 1.79584885 44.76076019 1.8113327 43.46958923 1.82728577 C42.18646347 1.83153061 40.90333771 1.83577545 39.58132935 1.84014893 C36.17319661 1.85159289 32.76544859 1.88105556 29.35746765 1.91426086 C25.87861841 1.9449718 22.39970689 1.95865641 18.92076111 1.97377014 C12.09703555 2.00592616 5.27356525 2.05711676 -1.54994202 2.12025452 C-1.75123215 2.80746078 -1.95252228 3.49466705 -2.15991211 4.20269775 C-2.4264711 5.10385818 -2.69303009 6.00501862 -2.96766663 6.93348694 C-3.23083176 7.82694321 -3.49399689 8.72039948 -3.76513672 9.64093018 C-4.6381618 12.39895481 -5.74614497 14.88433213 -7.11244202 17.43275452 C-8.79733878 20.60833877 -10.26035041 23.76256207 -11.54994202 27.12025452 C-12.61911631 23.91540791 -12.52370638 22.27200566 -11.18666077 19.18666077 C-10.87664124 18.4551178 -10.5666217 17.72357483 -10.24720764 16.96986389 C-9.91398499 16.2151178 -9.58076233 15.4603717 -9.23744202 14.68275452 C-8.59551116 13.18405822 -7.95358398 11.68536034 -7.31166077 10.18666077 C-7.00534729 9.48428284 -6.69903381 8.78190491 -6.38343811 8.0582428 C-5.68506563 6.43443472 -5.02837422 4.79278598 -4.38197327 3.14759827 C-3.15117397 0.14860844 -3.15117397 0.14860844 0 0 Z " fill="#9DF5A3" transform="translate(485.54994201660156,377.87974548339844)"/>
<path d="M0 0 C2.8186838 0.26754085 2.8186838 0.26754085 5.0546875 -0.4765625 C7.60500953 -1.02726097 8.64867378 -0.08180321 10.91796875 1.12109375 C13.50329576 1.57174007 13.50329576 1.57174007 16.16796875 1.74609375 C17.06 1.82085937 17.95203125 1.895625 18.87109375 1.97265625 C19.88429688 2.04613281 19.88429688 2.04613281 20.91796875 2.12109375 C20.91796875 2.45109375 20.91796875 2.78109375 20.91796875 3.12109375 C1.77796875 3.12109375 -17.36203125 3.12109375 -37.08203125 3.12109375 C-37.08203125 2.79109375 -37.08203125 2.46109375 -37.08203125 2.12109375 C-35.50117077 1.75604772 -33.91719218 1.40448869 -32.33203125 1.05859375 C-31.4503125 0.86136719 -30.56859375 0.66414063 -29.66015625 0.4609375 C-27.08203125 0.12109375 -27.08203125 0.12109375 -25.00390625 0.6875 C-18.74694456 2.0991316 -7.58191461 -0.73373367 0 0 Z " fill="#0F6D20" transform="translate(714.08203125,374.87890625)"/>
<path d="M0 0 C1.66666667 1.66666667 3.33333333 3.33333333 5 5 C5.928125 5.86625 6.85625 6.7325 7.8125 7.625 C10 10 10 10 10 13 C10.721875 13.20625 11.44375 13.4125 12.1875 13.625 C15.71868371 15.35135648 18.05150398 17.62944372 20 21 C20.23589844 22.03253906 20.47179687 23.06507813 20.71484375 24.12890625 C22.09883817 29.32523234 25.55852089 33.12973064 28.875 37.25 C29.50019531 38.05179688 30.12539063 38.85359375 30.76953125 39.6796875 C33.62694307 43.2922293 36.20285163 46.34417305 40 49 C38.02 49.495 38.02 49.495 36 50 C19.57187287 28.47494888 19.57187287 28.47494888 13.1015625 19.78125 C11.51277141 17.67861197 9.90544983 15.59990218 8.2734375 13.53125 C7.81179199 12.94279297 7.35014648 12.35433594 6.87451172 11.74804688 C5.98333649 10.61468726 5.08682968 9.48549181 4.18408203 8.36132812 C2.05956325 5.65382569 0.46557916 3.45858803 0 0 Z " fill="#49F567" transform="translate(645,572)"/>
<path d="M0 0 C0.33 0 0.66 0 1 0 C1 37.62 1 75.24 1 114 C0.01 113.34 -0.98 112.68 -2 112 C-1.83923477 111.06018784 -1.67846954 110.12037567 -1.51283264 109.15208435 C-0.82405377 104.29716449 -0.82413388 99.46278789 -0.79467773 94.56665039 C-0.78477814 93.5415033 -0.77487854 92.5163562 -0.76467896 91.46014404 C-0.73322354 88.08933785 -0.70836988 84.71851759 -0.68359375 81.34765625 C-0.66301043 79.00353134 -0.6420136 76.65941002 -0.62062073 74.31529236 C-0.56554237 68.15867026 -0.5160705 62.00201545 -0.46777344 55.84533691 C-0.41745424 49.55766911 -0.36182265 43.27004855 -0.30664062 36.98242188 C-0.19923326 24.65498831 -0.09774986 12.32751366 0 0 Z " fill="#03470D" transform="translate(676,403)"/>
<path d="M0 0 C23.76 0 47.52 0 72 0 C72.99 2.97 72.99 2.97 74 6 C72 5 72 5 71 2 C70.09489685 2.00333092 70.09489685 2.00333092 69.17150879 2.00672913 C62.81079713 2.02909602 56.45009689 2.04403548 50.08935547 2.05493164 C47.72509303 2.05991682 45.3608336 2.06670737 42.99658203 2.07543945 C29.9573932 2.12234301 17.00041203 2.0961374 4 1 C3.34 2.32 2.68 3.64 2 5 C1.34 3.35 0.68 1.7 0 0 Z " fill="#8DF293" transform="translate(278,378)"/>
<path d="M0 0 C0.639375 0.350625 1.27875 0.70125 1.9375 1.0625 C5.33507016 2.1025725 7.73077426 1.72788389 11.19921875 1.2265625 C15.97157692 0.840514 20.68740096 1.35545657 25.44921875 1.74609375 C28.9610331 2.05561588 28.9610331 2.05561588 32.33203125 1.91015625 C35 2 35 2 37 4 C20.17 4 3.34 4 -14 4 C-12 2 -12 2 -9.6875 1.875 C-7.89583333 1.95833333 -6.10416667 2.04166667 -4.3125 2.125 C-1.80221125 2.24748441 -1.80221125 2.24748441 0 0 Z " fill="#0F7022" transform="translate(509,372)"/>
<path d="M0 0 C1.22782062 4.02065758 0.50441667 5.72039962 -1.375 9.5 C-2.94323131 12.68902903 -4.16694929 15.55854459 -5 19 C-5.71860921 20.68044 -6.4722693 22.34609168 -7.25 24 C-9.64634114 29.15386994 -11.80069973 34.37766902 -13.88671875 39.6640625 C-15 42 -15 42 -17 43 C-14.9980401 35.37850353 -12.08814307 28.31540737 -8.91943359 21.11279297 C-7.11526918 16.96695154 -5.37481881 12.79399485 -3.625 8.625 C-2.92970509 6.97134677 -2.23439406 5.31770032 -1.5390625 3.6640625 C-1.03117188 2.45492188 -0.52328125 1.24578125 0 0 Z " fill="#10721A" transform="translate(525,430)"/>
<path d="M0 0 C0.66 0 1.32 0 2 0 C0.49839696 5.98511281 -0.96000401 11.58087671 -4 17 C-6.27865654 21.20675053 -7.56127461 25.67605921 -9 30.22265625 C-10 33 -10 33 -12 36 C-12.66 36 -13.32 36 -14 36 C-11.51463577 28.13674867 -8.45292227 20.55960875 -5.3125 12.9375 C-4.79595529 11.67784451 -4.2796773 10.41807962 -3.76367188 9.15820312 C-2.51172398 6.1043863 -1.25710616 3.05169618 0 0 Z " fill="#53EA67" transform="translate(530,465)"/>
<path d="M0 0 C0.33 0 0.66 0 1 0 C1 17.82 1 35.64 1 54 C0.67 54 0.34 54 0 54 C-0.33 51.69 -0.66 49.38 -1 47 C-1.33 47 -1.66 47 -2 47 C-2 45.02 -2 43.04 -2 41 C-1.67 41 -1.34 41 -1 41 C-0.67 27.47 -0.34 13.94 0 0 Z " fill="#7BFC83" transform="translate(735,391)"/>
<path d="M0 0 C1.32 0.99 2.64 1.98 4 3 C3.67 3.66 3.34 4.32 3 5 C2.67 5 2.34 5 2 5 C2 17.21 2 29.42 2 42 C1.34 42 0.68 42 0 42 C0 28.14 0 14.28 0 0 Z " fill="#043A0B" transform="translate(568,474)"/>
<path d="M0 0 C1.23556641 0.01740234 1.23556641 0.01740234 2.49609375 0.03515625 C3.32238281 0.04417969 4.14867187 0.05320312 5 0.0625 C5.63808594 0.07410156 6.27617187 0.08570313 6.93359375 0.09765625 C6.93359375 0.42765625 6.93359375 0.75765625 6.93359375 1.09765625 C4.29359375 1.42765625 1.65359375 1.75765625 -1.06640625 2.09765625 C-1.22496094 2.70351563 -1.38351562 3.309375 -1.546875 3.93359375 C-3.11688718 9.57175903 -5.13998303 14.60393025 -7.8828125 19.7734375 C-9.10180976 22.167178 -10.10375041 24.5912021 -11.06640625 27.09765625 C-12.13558055 23.89280964 -12.04017061 22.24940739 -10.703125 19.1640625 C-10.39310547 18.43251953 -10.08308594 17.70097656 -9.76367188 16.94726562 C-9.43044922 16.19251953 -9.09722656 15.43777344 -8.75390625 14.66015625 C-8.11197539 13.16145995 -7.47004821 11.66276207 -6.828125 10.1640625 C-6.52181152 9.46168457 -6.21549805 8.75930664 -5.89990234 8.03564453 C-5.20152986 6.41183645 -4.54483845 4.77018771 -3.8984375 3.125 C-2.66766319 0.12607104 -2.66766319 0.12607104 0 0 Z " fill="#82E88C" transform="translate(485.06640625,377.90234375)"/>
<path d="M0 0 C1.52519276 0.08937803 3.04681929 0.24537146 4.5625 0.4375 C5.38878906 0.53933594 6.21507812 0.64117187 7.06640625 0.74609375 C7.70449219 0.82988281 8.34257812 0.91367187 9 1 C9 1.66 9 2.32 9 3 C-0.9 3 -10.8 3 -21 3 C-21.33 3.66 -21.66 4.32 -22 5 C-22 4.01 -22 3.02 -22 2 C-16.65890097 0.93676411 -11.55508351 0.93615955 -6.12695312 1.0390625 C-4.41804145 1.0595081 -2.70870148 1.03371051 -1 1 C-0.67 0.67 -0.34 0.34 0 0 Z " fill="#095116" transform="translate(299,375)"/>
<path d="M0 0 C4.91194189 4.61342608 8.69389504 9.84266354 12.62695312 15.29296875 C16.23288281 20.22233505 16.23288281 20.22233505 21 24 C19.68 24.33 18.36 24.66 17 25 C14.34358988 21.59143881 11.70176391 18.17184938 9.0625 14.75 C8.30775391 13.78191406 7.55300781 12.81382812 6.77539062 11.81640625 C6.05673828 10.88183594 5.33808594 9.94726562 4.59765625 8.984375 C3.93258057 8.12553711 3.26750488 7.26669922 2.58227539 6.38183594 C1.10728212 4.16149427 0.42420714 2.60320903 0 0 Z " fill="#54EE6B" transform="translate(664,597)"/>
<path d="M0 0 C8.58 0 17.16 0 26 0 C22.25643858 1.87178071 21.49193805 2.24942415 17.671875 1.9765625 C16.87265625 1.925 16.0734375 1.8734375 15.25 1.8203125 C14.425 1.75585938 13.6 1.69140625 12.75 1.625 C11.48929687 1.53992188 11.48929687 1.53992188 10.203125 1.453125 C8.13470958 1.31209668 6.0672354 1.15738212 4 1 C3.34 2.32 2.68 3.64 2 5 C1.34 3.35 0.68 1.7 0 0 Z " fill="#77E67F" transform="translate(278,378)"/>
<path d="M0 0 C1.25348607 2.95106435 1.01044806 3.97406463 -0.21484375 7.015625 C-1.06755859 8.61664063 -1.06755859 8.61664063 -1.9375 10.25 C-2.50339844 11.32765625 -3.06929687 12.4053125 -3.65234375 13.515625 C-4.09707031 14.33546875 -4.54179688 15.1553125 -5 16 C-6.32095328 12.03714015 -5.27105135 10.64909563 -3.625 6.875 C-3.16351562 5.79992187 -2.70203125 4.72484375 -2.2265625 3.6171875 C-1 1 -1 1 0 0 Z " fill="#65EE70" transform="translate(538,448)"/>
<path d="M0 0 C1.32 0.99 2.64 1.98 4 3 C3.67 3.66 3.34 4.32 3 5 C2.67 5 2.34 5 2 5 C2 8.96 2 12.92 2 17 C1.34 17 0.68 17 0 17 C0 11.39 0 5.78 0 0 Z " fill="#044F0C" transform="translate(568,474)"/>
<path d="M0 0 C1.52519276 0.08937803 3.04681929 0.24537146 4.5625 0.4375 C5.38878906 0.53933594 6.21507812 0.64117187 7.06640625 0.74609375 C7.70449219 0.82988281 8.34257812 0.91367187 9 1 C9 1.66 9 2.32 9 3 C4.38 3 -0.24 3 -5 3 C-3.68 2.34 -2.36 1.68 -1 1 C-0.67 0.67 -0.34 0.34 0 0 Z " fill="#0B6E1A" transform="translate(299,375)"/>
<path d="M0 0 C1.5 1.125 1.5 1.125 3 3 C3.1875 6.1875 3.1875 6.1875 3 9 C-0.75283733 7.54728878 -0.75283733 7.54728878 -1.875 5.0625 C-2 3 -2 3 0 0 Z " fill="#128621" transform="translate(547,378)"/>
<path d="M0 0 C0 0.99 0 1.98 0 3 C-4.29 3 -8.58 3 -13 3 C-13 2.67 -13 2.34 -13 2 C-4.57142857 -0.28571429 -4.57142857 -0.28571429 0 0 Z " fill="#0E5F1D" transform="translate(690,375)"/>
<path d="M0 0 C0.66 0 1.32 0 2 0 C2.50615298 1.26839526 3.00469099 2.53983102 3.5 3.8125 C3.91765625 4.87404297 3.91765625 4.87404297 4.34375 5.95703125 C5 8 5 8 5 11 C4.34 11 3.68 11 3 11 C2.49384702 9.73160474 1.99530901 8.46016898 1.5 7.1875 C1.2215625 6.47980469 0.943125 5.77210938 0.65625 5.04296875 C0 3 0 3 0 0 Z " fill="#57E461" transform="translate(373,440)"/>
<path d="M0 0 C0.33 0.66 0.66 1.32 1 2 C1.66 2 2.32 2 3 2 C3.33 5.3 3.66 8.6 4 12 C1.49484216 9.49484216 0.94900914 7.38931835 0 4 C0 2.68 0 1.36 0 0 Z " fill="#0B5E1B" transform="translate(737,378)"/>
<path d="M0 0 C1.1875 1.6875 1.1875 1.6875 2 4 C0.6875 6.625 0.6875 6.625 -1 9 C-1.33 9.66 -1.66 10.32 -2 11 C-2.66 11 -3.32 11 -4 11 C-3.52269162 9.5410574 -3.04308958 8.08286504 -2.5625 6.625 C-2.29566406 5.81289063 -2.02882813 5.00078125 -1.75390625 4.1640625 C-1 2 -1 2 0 0 Z " fill="#0B5719" transform="translate(495,502)"/>
<path d="M0 0 C2.5625 2.1875 2.5625 2.1875 5 5 C4.8125 7.8125 4.8125 7.8125 4 10 C3.34 9.67 2.68 9.34 2 9 C1.3671875 6.93359375 1.3671875 6.93359375 0.875 4.4375 C0.70742188 3.61121094 0.53984375 2.78492188 0.3671875 1.93359375 C0.24601562 1.29550781 0.12484375 0.65742187 0 0 Z " fill="#065313" transform="translate(412,535)"/>
<path d="M0 0 C1.2077558 3.62326739 0.54311128 4.64146369 -1 8 C-1.66 7.67 -2.32 7.34 -3 7 C-2.25 2.25 -2.25 2.25 0 0 Z " fill="#106722" transform="translate(477,388)"/>
</svg>
